<?xml version="1.0" standalone="no"?>
<!DOCTYPE svg PUBLIC "-//W3C//DTD SVG 20010904//EN"
 "http://www.w3.org/TR/2001/REC-SVG-20010904/DTD/svg10.dtd">
<svg version="1.0" xmlns="http://www.w3.org/2000/svg"
 width="600.000000pt" height="598.000000pt" viewBox="0 0 600.000000 598.000000"
 preserveAspectRatio="xMidYMid meet">

<g transform="translate(0.000000,598.000000) scale(0.100000,-0.100000)"
fill="#000000" stroke="none">
<path d="M2805 5800 c-702 -48 -1362 -359 -1851 -873 -415 -435 -665 -961
-751 -1577 -27 -195 -24 -558 6 -760 63 -424 209 -808 435 -1148 453 -683
1146 -1121 1967 -1244 207 -31 572 -30 779 1 809 122 1492 549 1942 1216 238
353 384 729 453 1165 23 141 31 530 16 687 -34 332 -125 650 -276 958 -163
333 -347 580 -623 837 -472 440 -1080 698 -1736 738 -167 10 -201 10 -361 0z
m565 -175 c341 -52 673 -166 937 -321 248 -145 404 -266 590 -455 407 -413
663 -939 745 -1529 20 -145 17 -546 -5 -690 -67 -431 -200 -777 -433 -1126
-74 -111 -230 -305 -249 -310 -5 -2 -30 38 -55 88 -200 407 -579 765 -1021
965 -286 129 -549 186 -869 187 -221 0 -327 -12 -520 -59 -609 -148 -1137
-565 -1407 -1110 -21 -41 -41 -75 -45 -75 -15 0 -174 202 -258 327 -189 283
-323 604 -391 936 -69 340 -69 738 2 1090 75 374 266 781 513 1092 455 573
1103 927 1836 1005 125 13 506 4 630 -15z m-45 -3369 c219 -40 390 -97 580
-192 201 -102 363 -222 525 -390 153 -159 264 -317 353 -502 l49 -104 -33 -35
c-58 -60 -229 -193 -346 -270 -316 -206 -636 -331 -1023 -399 -197 -35 -513
-44 -714 -20 -447 52 -834 191 -1191 428 -94 63 -236 174 -318 249 l-48 44 59
120 c129 261 294 467 517 648 297 240 648 389 1028 437 111 13 457 5 562 -14z"/>
<path d="M2880 4700 c-521 -62 -913 -524 -887 -1045 28 -563 497 -992 1050
-962 143 8 256 37 382 96 202 96 377 265 473 456 33 66 79 206 92 282 20 113
8 326 -24 438 -120 410 -460 696 -873 735 -118 11 -118 11 -213 0z m275 -165
c130 -25 236 -71 340 -147 239 -177 368 -450 352 -743 -36 -610 -687 -982
-1237 -705 -201 101 -347 271 -420 488 -34 102 -54 256 -45 347 31 308 234
586 513 705 66 28 159 55 217 63 71 10 209 6 280 -8z"/>
</g>
</svg>
