<svg xmlns="http://www.w3.org/2000/svg" version="1.0" preserveAspectRatio="xMidYMid meet" viewBox="122.05 73.1 269.82 267.9">

<g transform="translate(0.000000,513.000000) scale(0.100000,-0.100000)" fill="#000000" stroke="none">
<path d="M2515 4386 c-41 -19 -1271 -1254 -1285 -1289 -14 -39 -13 -63 6 -103 27 -58 67 -74 178 -74 l96 0 0 -549 0 -548 23 -34 c44 -67 58 -69 385 -69 318 0 339 3 380 55 22 27 22 33 22 404 0 280 3 380 12 389 17 17 459 17 476 0 9 -9 12 -109 12 -389 0 -366 1 -377 21 -403 43 -54 53 -56 376 -56 333 0 346 2 390 69 l23 34 0 548 0 549 96 0 c118 0 154 17 179 84 34 88 59 58 -632 748 -349 348 -641 632 -656 638 -37 13 -65 12 -102 -4z m687 -703 c340 -340 618 -626 618 -635 0 -29 -35 -38 -154 -38 -81 0 -117 -4 -123 -12 -4 -7 -10 -274 -13 -593 l-5 -580 -299 -3 c-233 -2 -301 1 -308 10 -4 7 -8 179 -8 381 0 404 -1 412 -60 442 -43 22 -517 22 -560 0 -59 -30 -60 -38 -60 -442 0 -202 -4 -374 -8 -381 -7 -9 -75 -12 -308 -10 l-299 3 -5 580 c-3 319 -9 586 -13 593 -6 8 -42 12 -123 12 -119 0 -154 9 -154 38 0 21 1229 1252 1250 1252 8 0 293 -278 632 -617z"/>
</g>
</svg>