<?xml version="1.0" standalone="no"?>
<!DOCTYPE svg PUBLIC "-//W3C//DTD SVG 20010904//EN"
 "http://www.w3.org/TR/2001/REC-SVG-20010904/DTD/svg10.dtd">
<svg version="1.0" xmlns="http://www.w3.org/2000/svg"
 width="149.000000pt" height="131.000000pt" viewBox="0 0 149.000000 131.000000"
 preserveAspectRatio="xMidYMid meet">

<g transform="translate(0.000000,131.000000) scale(0.100000,-0.100000)"
fill="#000000" stroke="none">
<path d="M131 1253 c-20 -76 -43 -216 -44 -273 -2 -62 15 -93 61 -111 13 -5
22 -17 22 -29 0 -26 -57 -306 -114 -558 l-43 -194 32 -34 c25 -26 41 -34 66
-34 63 0 75 17 98 147 12 65 25 147 29 182 l7 64 42 -60 c89 -126 220 -221
337 -242 84 -15 192 -14 261 4 168 44 315 178 380 347 13 35 24 54 25 43 1
-42 20 -254 31 -344 14 -110 34 -141 92 -141 76 0 82 50 41 323 -56 374 -148
909 -160 929 -18 29 -117 -103 -129 -171 -3 -22 -12 -46 -18 -55 -11 -14 -17
-12 -57 20 -101 81 -211 118 -350 117 -77 0 -109 -5 -170 -27 -41 -15 -83 -29
-93 -33 -17 -5 -18 -1 -11 56 6 53 4 61 -10 61 -20 0 -31 -26 -46 -102 -11
-56 -42 -110 -55 -96 -4 3 -2 48 5 99 7 64 8 95 0 103 -18 18 -29 -6 -48 -99
-11 -60 -23 -91 -35 -99 -30 -19 -34 7 -19 110 11 73 12 98 3 107 -16 16 -28
-4 -41 -73 -21 -100 -31 -130 -44 -130 -22 0 -25 23 -16 92 14 95 13 138 -5
138 -8 0 -18 -16 -24 -37z m1157 -195 c12 -68 31 -188 43 -266 25 -161 24
-164 -41 -160 l-35 3 -23 145 c-27 176 -27 330 1 373 9 15 21 27 26 27 4 0 18
-55 29 -122z m-419 66 c111 -25 247 -118 276 -188 8 -18 23 -84 35 -147 11
-63 30 -145 42 -182 19 -61 20 -72 7 -110 -34 -103 -159 -246 -261 -298 -58
-30 -146 -49 -223 -49 -190 0 -352 101 -439 273 l-38 75 4 138 c4 155 16 197
58 202 61 7 89 44 105 139 10 60 35 87 112 118 120 48 205 55 322 29z m-487
-152 c4 -4 0 -23 -10 -42 l-17 -35 -70 2 c-38 0 -88 7 -110 15 -35 11 -40 17
-43 46 -6 58 4 61 130 40 62 -11 116 -22 120 -26z m-148 -179 c-2 -21 -15
-146 -29 -278 -30 -281 -51 -424 -67 -442 -17 -21 -47 -15 -59 11 -8 17 -7 44
6 107 26 133 136 623 141 631 10 16 12 7 8 -29z m1136 -242 c9 -35 50 -306 63
-418 3 -23 0 -46 -6 -52 -19 -19 -46 -12 -51 12 -7 33 -36 394 -36 450 0 57
15 61 30 8z"/>
<path d="M710 1009 c-131 -21 -241 -98 -295 -206 -27 -52 -30 -68 -30 -153 0
-88 3 -101 33 -162 38 -78 101 -139 188 -183 52 -26 69 -30 139 -29 105 2 177
29 250 95 209 192 142 523 -125 618 -71 25 -105 30 -160 20z m192 -82 c185
-108 220 -365 69 -516 -65 -65 -113 -85 -206 -84 -144 0 -247 59 -302 171 -65
131 -17 331 98 413 56 40 98 49 199 46 83 -2 102 -6 142 -30z"/>
</g>
</svg>
