<?xml version="1.0" standalone="no"?>
<!DOCTYPE svg PUBLIC "-//W3C//DTD SVG 20010904//EN"
 "http://www.w3.org/TR/2001/REC-SVG-20010904/DTD/svg10.dtd">
<svg version="1.0" xmlns="http://www.w3.org/2000/svg"
 width="98.000000pt" height="99.000000pt" viewBox="0 0 98.000000 99.000000"
 preserveAspectRatio="xMidYMid meet">

<g transform="translate(0.000000,99.000000) scale(0.100000,-0.100000)"
fill="#000000" stroke="none">
<path d="M93 935 c-17 -7 -36 -22 -42 -34 -7 -13 -11 -119 -11 -301 0 -310 2
-318 62 -339 44 -15 281 -14 296 1 15 15 16 134 1 143 -5 4 -23 2 -39 -5 -37
-15 -70 1 -70 34 0 34 22 47 71 44 l44 -3 3 53 c2 42 6 52 21 52 14 0 20 -10
25 -39 8 -50 45 -81 96 -81 45 0 78 32 87 83 5 34 8 36 47 39 l41 3 3 140 c3
160 -5 191 -54 211 -48 20 -535 19 -581 -1z m267 -84 c0 -57 10 -68 50 -51 37
15 70 -1 70 -34 0 -34 -22 -47 -71 -44 l-44 3 -3 -53 c-3 -48 -5 -53 -24 -50
-16 2 -22 12 -24 38 -5 46 -43 80 -90 80 -47 0 -94 -45 -94 -90 0 -27 -3 -31
-22 -28 -22 3 -23 7 -26 117 -4 163 -6 161 153 161 l125 0 0 -49z m311 32 c15
-17 26 -194 15 -239 -6 -21 -12 -24 -56 -24 -50 0 -71 -13 -51 -33 19 -19 13
-65 -9 -77 -45 -24 -85 22 -60 69 16 31 5 41 -51 41 -46 0 -49 2 -49 25 0 21
5 25 29 25 38 0 78 33 86 71 13 59 -29 112 -89 112 -21 0 -26 4 -26 23 0 24 0
24 124 24 103 0 126 -3 137 -17z m-417 -199 c19 -18 21 -45 5 -61 -24 -24 -2
-43 51 -43 47 0 50 -2 50 -25 0 -21 -5 -25 -31 -25 -41 0 -89 -47 -89 -88 0
-46 43 -92 86 -92 30 0 34 -3 34 -25 l0 -25 -125 0 c-159 0 -157 -2 -153 161
l3 114 52 3 c49 3 77 22 53 37 -17 10 -11 63 8 74 24 15 38 13 56 -5z"/>
<path d="M597 383 c-4 -3 -7 -24 -7 -45 0 -31 -4 -38 -20 -38 -51 0 -100 -49
-100 -99 0 -34 52 -84 88 -85 30 -1 32 -3 32 -37 0 -57 11 -61 175 -57 l147 3
24 28 c24 28 24 32 22 180 l-3 152 -73 3 -73 3 7 -48 c7 -57 -9 -79 -51 -69
-29 7 -42 44 -25 75 6 12 8 26 5 31 -7 11 -138 14 -148 3z m88 -71 c4 -50 39
-82 89 -82 23 0 46 4 52 8 22 15 44 58 44 85 0 24 4 28 23 25 21 -3 22 -7 25
-117 4 -163 6 -161 -153 -161 l-125 0 0 50 c0 53 -19 75 -43 51 -27 -27 -77
-5 -77 35 0 32 22 45 71 42 l44 -3 3 53 c3 47 5 53 24 50 15 -2 21 -11 23 -36z"/>
</g>
</svg>
